<svg width="206" height="74" viewBox="0 0 206 74" fill="none" xmlns="http://www.w3.org/2000/svg">
<path d="M0 33C0 14.7746 14.7746 0 33 0H173C191.225 0 206 14.7746 206 33V40.1739C206 58.3993 191.225 73.1739 173 73.1739H33C14.7746 73.1739 0 58.3993 0 40.1739V33Z" fill="url(#paint0_linear_1_206)"/>
<path d="M49.24 45.2C48.0267 45.2 46.9467 45.0533 46 44.76C45.0533 44.4533 44.2533 44.0333 43.6 43.5L44.42 41.6C45.02 42.08 45.7 42.4467 46.46 42.7C47.22 42.94 48.0867 43.06 49.06 43.06C50.2333 43.06 51.0933 42.88 51.64 42.52C52.1867 42.1467 52.46 41.5933 52.46 40.86C52.46 40.18 52.2333 39.68 51.78 39.36C51.3267 39.0267 50.6267 38.86 49.68 38.86H46.14V36.84H49.36C50.2667 36.84 50.9467 36.68 51.4 36.36C51.8667 36.0267 52.1 35.5333 52.1 34.88C52.1 34.2533 51.8533 33.76 51.36 33.4C50.8667 33.0267 50.1067 32.84 49.08 32.84C48.2667 32.84 47.4867 32.96 46.74 33.2C45.9933 33.44 45.3267 33.7933 44.74 34.26L43.92 32.36C44.5467 31.8267 45.3333 31.42 46.28 31.14C47.24 30.8467 48.2533 30.7 49.32 30.7C51.0667 30.7 52.38 31.0533 53.26 31.76C54.1533 32.4667 54.6 33.3933 54.6 34.54C54.6 35.3933 54.3467 36.12 53.84 36.72C53.3333 37.3067 52.64 37.7 51.76 37.9V37.6C52.76 37.7467 53.54 38.12 54.1 38.72C54.6733 39.32 54.96 40.1067 54.96 41.08C54.96 41.9067 54.7467 42.6333 54.32 43.26C53.9067 43.8733 53.2733 44.3533 52.42 44.7C51.58 45.0333 50.52 45.2 49.24 45.2ZM61.2516 45.2C60.3716 45.2 59.5982 44.9933 58.9316 44.58C58.2649 44.1533 57.7449 43.5467 57.3716 42.76C56.9982 41.9733 56.8116 41.0333 56.8116 39.94C56.8116 38.8467 56.9982 37.9133 57.3716 37.14C57.7449 36.3533 58.2649 35.7533 58.9316 35.34C59.5982 34.9133 60.3716 34.7 61.2516 34.7C62.1049 34.7 62.8516 34.9133 63.4916 35.34C64.1449 35.7533 64.5782 36.3133 64.7916 37.02H64.5716L64.7916 34.9H67.1916C67.1516 35.3133 67.1116 35.7333 67.0716 36.16C67.0449 36.5867 67.0316 37.0067 67.0316 37.42V45H64.5516L64.5316 42.92H64.7716C64.5582 43.6133 64.1249 44.1667 63.4716 44.58C62.8182 44.9933 62.0782 45.2 61.2516 45.2ZM61.9516 43.28C62.7382 43.28 63.3716 43.0067 63.8516 42.46C64.3316 41.9 64.5716 41.06 64.5716 39.94C64.5716 38.82 64.3316 37.9867 63.8516 37.44C63.3716 36.8933 62.7382 36.62 61.9516 36.62C61.1649 36.62 60.5316 36.8933 60.0516 37.44C59.5716 37.9867 59.3316 38.82 59.3316 39.94C59.3316 41.06 59.5649 41.9 60.0316 42.46C60.5116 43.0067 61.1516 43.28 61.9516 43.28ZM69.9473 45V34.9H79.4073V45H76.9273V36.82H72.4273V45H69.9473ZM82.252 45V34.9H84.512V42.54H83.912L89.652 34.9H91.712V45H89.452V37.34H90.072L84.312 45H82.252ZM99.2767 45.2C98.2367 45.2 97.3234 44.9867 96.5367 44.56C95.7634 44.1333 95.1634 43.5267 94.7367 42.74C94.3101 41.94 94.0967 40.9933 94.0967 39.9C94.0967 38.8067 94.3101 37.8733 94.7367 37.1C95.1767 36.3267 95.7834 35.7333 96.5567 35.32C97.3301 34.9067 98.2367 34.7 99.2767 34.7C99.9434 34.7 100.59 34.8067 101.217 35.02C101.857 35.22 102.377 35.5133 102.777 35.9L102.017 37.64C101.657 37.3067 101.25 37.06 100.797 36.9C100.357 36.7267 99.9234 36.64 99.4967 36.64C98.6034 36.64 97.9034 36.92 97.3967 37.48C96.9034 38.04 96.6567 38.8533 96.6567 39.92C96.6567 40.9867 96.9034 41.8067 97.3967 42.38C97.9034 42.9533 98.6034 43.24 99.4967 43.24C99.9101 43.24 100.337 43.16 100.777 43C101.23 42.84 101.643 42.5933 102.017 42.26L102.777 43.98C102.363 44.3667 101.837 44.6667 101.197 44.88C100.57 45.0933 99.9301 45.2 99.2767 45.2ZM108.888 45.2C108.008 45.2 107.235 44.9933 106.568 44.58C105.902 44.1533 105.382 43.5467 105.008 42.76C104.635 41.9733 104.448 41.0333 104.448 39.94C104.448 38.8467 104.635 37.9133 105.008 37.14C105.382 36.3533 105.902 35.7533 106.568 35.34C107.235 34.9133 108.008 34.7 108.888 34.7C109.742 34.7 110.488 34.9133 111.128 35.34C111.782 35.7533 112.215 36.3133 112.428 37.02H112.208L112.428 34.9H114.828C114.788 35.3133 114.748 35.7333 114.708 36.16C114.682 36.5867 114.668 37.0067 114.668 37.42V45H112.188L112.168 42.92H112.408C112.195 43.6133 111.762 44.1667 111.108 44.58C110.455 44.9933 109.715 45.2 108.888 45.2ZM109.588 43.28C110.375 43.28 111.008 43.0067 111.488 42.46C111.968 41.9 112.208 41.06 112.208 39.94C112.208 38.82 111.968 37.9867 111.488 37.44C111.008 36.8933 110.375 36.62 109.588 36.62C108.802 36.62 108.168 36.8933 107.688 37.44C107.208 37.9867 106.968 38.82 106.968 39.94C106.968 41.06 107.202 41.9 107.668 42.46C108.148 43.0067 108.788 43.28 109.588 43.28ZM119.764 45V36.86H116.304V34.9H125.724V36.86H122.244V45H119.764ZM127.272 45V34.9H129.752V38.28H132.412C133.758 38.28 134.772 38.5667 135.452 39.14C136.132 39.7 136.472 40.5133 136.472 41.58C136.472 42.2733 136.312 42.88 135.992 43.4C135.672 43.9067 135.205 44.3 134.592 44.58C133.992 44.86 133.265 45 132.412 45H127.272ZM129.752 43.36H132.072C132.752 43.36 133.272 43.22 133.632 42.94C133.992 42.6467 134.172 42.2067 134.172 41.62C134.172 41.0333 133.992 40.6067 133.632 40.34C133.285 40.06 132.765 39.92 132.072 39.92H129.752V43.36ZM143.281 45.2C142.241 45.2 141.327 44.9867 140.541 44.56C139.767 44.1333 139.167 43.5267 138.741 42.74C138.314 41.94 138.101 40.9933 138.101 39.9C138.101 38.8067 138.314 37.8733 138.741 37.1C139.181 36.3267 139.787 35.7333 140.561 35.32C141.334 34.9067 142.241 34.7 143.281 34.7C143.947 34.7 144.594 34.8067 145.221 35.02C145.861 35.22 146.381 35.5133 146.781 35.9L146.021 37.64C145.661 37.3067 145.254 37.06 144.801 36.9C144.361 36.7267 143.927 36.64 143.501 36.64C142.607 36.64 141.907 36.92 141.401 37.48C140.907 38.04 140.661 38.8533 140.661 39.92C140.661 40.9867 140.907 41.8067 141.401 42.38C141.907 42.9533 142.607 43.24 143.501 43.24C143.914 43.24 144.341 43.16 144.781 43C145.234 42.84 145.647 42.5933 146.021 42.26L146.781 43.98C146.367 44.3667 145.841 44.6667 145.201 44.88C144.574 45.0933 143.934 45.2 143.281 45.2ZM148.072 45L149.612 42.34C149.879 41.8867 150.206 41.5267 150.592 41.26C150.992 40.98 151.406 40.84 151.832 40.84H152.272L152.252 41.06C151.066 41.06 150.152 40.8 149.512 40.28C148.872 39.76 148.552 39 148.552 38C148.552 37.0133 148.879 36.2533 149.532 35.72C150.199 35.1733 151.172 34.9 152.452 34.9H157.472V45H155.192V41.44H154.052C153.639 41.44 153.272 41.5533 152.952 41.78C152.646 42.0067 152.386 42.3 152.172 42.66L150.852 45H148.072ZM152.932 39.82H155.192V36.52H152.932C152.252 36.52 151.739 36.6667 151.392 36.96C151.059 37.2533 150.892 37.6533 150.892 38.16C150.892 38.6933 151.059 39.1067 151.392 39.4C151.739 39.68 152.252 39.82 152.932 39.82Z" fill="white"/>
<defs>
<linearGradient id="paint0_linear_1_206" x1="116.156" y1="90.4723" x2="146.709" y2="1.73689" gradientUnits="userSpaceOnUse">
<stop stop-color="#8FBBE6"/>
<stop offset="1" stop-color="#3D75BF"/>
</linearGradient>
</defs>
</svg>
